<svg width="64" height="64" viewBox="0 0 64 64" xmlns="http://www.w3.org/2000/svg">
  <defs>
    <linearGradient id="bg" x1="0" y1="0" x2="1" y2="1">
      <stop offset="0%" stop-color="#0d1a3a"/>
      <stop offset="100%" stop-color="#081020"/>
    </linearGradient>
    <linearGradient id="shield" x1="0" y1="0" x2="0" y2="1">
      <stop offset="0%" stop-color="#2563eb"/>
      <stop offset="100%" stop-color="#1e3a8a"/>
    </linearGradient>
  </defs>

  <!-- Rounded square background -->
  <rect width="64" height="64" rx="14" fill="url(#bg)"/>

  <!-- Shield fill -->
  <path d="M32 10 L14 17 L14 30 C14 42 22 52 32 55 C42 52 50 42 50 30 L50 17 Z"
    fill="url(#shield)" opacity="0.9"/>

  <!-- Shield border glow -->
  <path d="M32 10 L14 17 L14 30 C14 42 22 52 32 55 C42 52 50 42 50 30 L50 17 Z"
    fill="none" stroke="#60a5fa" stroke-width="1" opacity="0.45"/>

  <!-- Gold X mark -->
  <path d="M22 24 L42 40 M42 24 L22 40"
    stroke="#d4a843" stroke-width="5.5" stroke-linecap="round"/>
</svg>
